# 3ds Max Wavefront OBJ Exporter v0.97b - (c)2007 guruware
# File Created: 06.05.2019 23:51:02

#
# object diamondwhite_dmesh
#

v  0.500000 0.143000 -0.000000
v  0.500000 0.126000 -0.000000
v  0.497593 0.132728 -0.049009
v  0.497593 0.137008 -0.049009
v  0.497593 0.132728 0.049008
v  0.497593 0.137008 0.049008
v  0.461940 0.143000 -0.191342
v  0.461940 0.126000 -0.191342
v  0.440960 0.132728 -0.235699
v  0.440960 0.137008 -0.235699
v  0.478470 0.132728 -0.145142
v  0.478470 0.137008 -0.145142
v  0.353554 0.143000 -0.353554
v  0.353554 0.126000 -0.353554
v  0.317196 0.132728 -0.386505
v  0.317196 0.137008 -0.386505
v  0.386505 0.132728 -0.317197
v  0.386505 0.137008 -0.317197
v  0.191342 0.143000 -0.461940
v  0.191342 0.126000 -0.461940
v  0.145142 0.132728 -0.478470
v  0.145142 0.137008 -0.478470
v  0.235699 0.132728 -0.440961
v  0.235699 0.137008 -0.440961
v  0.000000 0.143000 -0.500000
v  0.000000 0.126000 -0.500000
v  -0.049008 0.132728 -0.497593
v  -0.049008 0.137008 -0.497593
v  0.049008 0.132728 -0.497593
v  0.049008 0.137008 -0.497593
v  -0.191342 0.143000 -0.461940
v  -0.191342 0.126000 -0.461940
v  -0.235699 0.132728 -0.440961
v  -0.235699 0.137008 -0.440961
v  -0.145142 0.132728 -0.478470
v  -0.145142 0.137008 -0.478470
v  -0.353554 0.143000 -0.353554
v  -0.353554 0.126000 -0.353554
v  -0.386505 0.132728 -0.317197
v  -0.386505 0.137008 -0.317197
v  -0.317196 0.132728 -0.386505
v  -0.317196 0.137008 -0.386505
v  -0.461940 0.143000 -0.191342
v  -0.461940 0.126000 -0.191342
v  -0.478470 0.132728 -0.145142
v  -0.478470 0.137008 -0.145142
v  -0.440960 0.132728 -0.235699
v  -0.440960 0.137008 -0.235699
v  -0.500000 0.143000 -0.000000
v  -0.500000 0.126000 -0.000000
v  -0.497593 0.132728 0.049008
v  -0.497593 0.137008 0.049008
v  -0.497593 0.132728 -0.049009
v  -0.497593 0.137008 -0.049009
v  -0.461940 0.143000 0.191342
v  -0.461940 0.126000 0.191342
v  -0.440960 0.132728 0.235699
v  -0.440960 0.137008 0.235699
v  -0.478470 0.132728 0.145142
v  -0.478470 0.137008 0.145142
v  -0.353554 0.143000 0.353553
v  -0.353554 0.126000 0.353553
v  -0.317196 0.132728 0.386505
v  -0.317196 0.137008 0.386505
v  -0.386506 0.132728 0.317196
v  -0.386506 0.137008 0.317196
v  -0.191342 0.143000 0.461940
v  -0.191342 0.126000 0.461940
v  -0.145142 0.132728 0.478470
v  -0.145142 0.137008 0.478470
v  -0.235699 0.132728 0.440960
v  -0.235699 0.137008 0.440960
v  0.000000 0.143000 0.500000
v  0.000000 0.126000 0.500000
v  0.049008 0.132728 0.497592
v  0.049008 0.137008 0.497592
v  -0.049008 0.132728 0.497592
v  -0.049008 0.137008 0.497592
v  0.191342 0.143000 0.461939
v  0.191342 0.126000 0.461939
v  0.235699 0.132728 0.440960
v  0.235699 0.137008 0.440960
v  0.145142 0.132728 0.478470
v  0.145142 0.137008 0.478470
v  0.353554 0.143000 0.353553
v  0.353554 0.126000 0.353553
v  0.386506 0.132728 0.317196
v  0.386506 0.137008 0.317196
v  0.317196 0.132728 0.386505
v  0.317196 0.137008 0.386505
v  0.461940 0.143000 0.191342
v  0.461940 0.126000 0.191342
v  0.478470 0.132728 0.145142
v  0.478470 0.137008 0.145142
v  0.440960 0.132728 0.235699
v  0.440960 0.137008 0.235699
v  0.490393 0.134935 -0.097545
v  0.490393 0.135043 -0.097545
v  0.415735 0.134935 -0.277785
v  0.415735 0.135043 -0.277785
v  0.277785 0.134935 -0.415735
v  0.277785 0.135043 -0.415735
v  0.097545 0.134935 -0.490393
v  0.097545 0.135043 -0.490393
v  -0.097545 0.134935 -0.490393
v  -0.097545 0.135043 -0.490393
v  -0.277785 0.134935 -0.415735
v  -0.277785 0.135043 -0.415735
v  -0.415735 0.134935 -0.277785
v  -0.415735 0.135043 -0.277785
v  -0.490393 0.134935 -0.097545
v  -0.490393 0.135043 -0.097545
v  -0.490393 0.134935 0.097545
v  -0.490393 0.135043 0.097545
v  -0.415735 0.134935 0.277785
v  -0.415735 0.135043 0.277785
v  -0.277785 0.134935 0.415734
v  -0.277785 0.135043 0.415734
v  -0.097545 0.134935 0.490392
v  -0.097545 0.135043 0.490392
v  0.097545 0.134935 0.490392
v  0.097545 0.135043 0.490392
v  0.277785 0.134935 0.415735
v  0.277785 0.135043 0.415735
v  0.415735 0.134935 0.277785
v  0.415735 0.135043 0.277785
v  0.490393 0.134935 0.097545
v  0.490393 0.135043 0.097545
v  0.323750 0.264500 0.134101
v  0.323750 0.264500 -0.134101
v  0.134101 0.264500 -0.323750
v  -0.134101 0.264500 -0.323750
v  -0.323750 0.264500 -0.134101
v  -0.323750 0.264500 0.134101
v  -0.134101 0.264500 0.323750
v  0.134101 0.264500 0.323750
v  0.265000 0.305000 -0.000000
v  0.187384 0.305000 -0.187384
v  0.000000 0.305000 -0.265000
v  -0.187384 0.305000 -0.187384
v  -0.265000 0.305000 -0.000000
v  -0.187384 0.305000 0.187384
v  0.000000 0.305000 0.265000
v  0.187383 0.305000 0.187384
v  0.200000 -0.132600 -0.082843
v  0.200000 -0.132600 0.082842
v  0.082843 -0.132600 -0.200000
v  -0.082842 -0.132600 -0.200000
v  -0.200000 -0.132600 -0.082843
v  -0.200000 -0.132600 0.082842
v  -0.082842 -0.132600 0.200000
v  0.082843 -0.132600 0.200000
v  0.000000 -0.305000 -0.000000
# 153 vertices

vn 0.998800 0.000000 -0.049100
vn 0.998800 0.000000 0.049100
vn 0.904000 0.000000 -0.427600
vn 0.941500 0.000000 -0.336900
vn 0.671600 0.000000 -0.741000
vn 0.741000 0.000000 -0.671600
vn 0.336900 0.000000 -0.941500
vn 0.427600 0.000000 -0.904000
vn -0.049100 0.000000 -0.998800
vn 0.049100 0.000000 -0.998800
vn -0.427600 0.000000 -0.904000
vn -0.336900 0.000000 -0.941500
vn -0.741000 0.000000 -0.671600
vn -0.671600 0.000000 -0.741000
vn -0.941500 0.000000 -0.336900
vn -0.904000 0.000000 -0.427600
vn -0.998800 0.000000 0.049100
vn -0.998800 0.000000 -0.049100
vn -0.904000 0.000000 0.427600
vn -0.941500 0.000000 0.336900
vn -0.671600 0.000000 0.741000
vn -0.741000 0.000000 0.671600
vn -0.336900 0.000000 0.941500
vn -0.427600 0.000000 0.904000
vn 0.049100 0.000000 0.998800
vn -0.049100 0.000000 0.998800
vn 0.427600 0.000000 0.904000
vn 0.336900 0.000000 0.941500
vn 0.741000 0.000000 0.671600
vn 0.671600 0.000000 0.741000
vn 0.941500 0.000000 0.336900
vn 0.904000 0.000000 0.427600
vn 0.989200 0.000000 -0.146700
vn 0.970000 0.000000 -0.243000
vn 0.857700 0.000000 -0.514100
vn 0.803200 0.000000 -0.595700
vn 0.595700 0.000000 -0.803200
vn 0.514100 0.000000 -0.857700
vn 0.243000 0.000000 -0.970000
vn 0.146700 0.000000 -0.989200
vn -0.146700 0.000000 -0.989200
vn -0.243000 0.000000 -0.970000
vn -0.514100 0.000000 -0.857700
vn -0.595700 0.000000 -0.803200
vn -0.803200 0.000000 -0.595700
vn -0.857700 0.000000 -0.514100
vn -0.970000 0.000000 -0.243000
vn -0.989200 0.000000 -0.146700
vn -0.989200 0.000000 0.146700
vn -0.970000 0.000000 0.243000
vn -0.857700 0.000000 0.514100
vn -0.803200 0.000000 0.595700
vn -0.595700 0.000000 0.803200
vn -0.514100 0.000000 0.857700
vn -0.243000 0.000000 0.970000
vn -0.146700 0.000000 0.989200
vn 0.146700 0.000000 0.989200
vn 0.243000 0.000000 0.970000
vn 0.514100 0.000000 0.857700
vn 0.595700 0.000000 0.803200
vn 0.803200 0.000000 0.595700
vn 0.857700 0.000000 0.514100
vn 0.970000 0.000000 0.243000
vn 0.989200 0.000000 0.146700
vn 0.625700 0.770100 0.124500
vn 0.530400 0.770100 0.354400
vn 0.530400 0.770100 -0.354400
vn 0.625700 0.770100 -0.124500
vn 0.124500 0.770100 -0.625700
vn 0.354400 0.770100 -0.530400
vn -0.354400 0.770100 -0.530400
vn -0.124500 0.770100 -0.625700
vn -0.625700 0.770100 -0.124500
vn -0.530400 0.770100 -0.354400
vn -0.530400 0.770100 0.354400
vn -0.625700 0.770100 0.124500
vn -0.124500 0.770100 0.625700
vn -0.354400 0.770100 0.530400
vn 0.354400 0.770100 0.530400
vn 0.124500 0.770100 0.625700
vn 0.330800 0.933700 -0.137000
vn 0.401300 0.823300 -0.401300
vn 0.137000 0.933700 -0.330800
vn 0.000000 0.823300 -0.567600
vn -0.137000 0.933700 -0.330800
vn -0.401300 0.823300 -0.401300
vn -0.330800 0.933700 -0.137000
vn -0.567600 0.823300 -0.000000
vn -0.330800 0.933700 0.137000
vn -0.401300 0.823300 0.401300
vn -0.137000 0.933700 0.330800
vn 0.000000 0.823300 0.567600
vn 0.137000 0.933700 0.330800
vn 0.401300 0.823300 0.401300
vn 0.330800 0.933700 0.137000
vn 0.567600 0.823300 -0.000000
vn 0.000000 1.000000 -0.000000
vn 0.668000 -0.732200 -0.132900
vn 0.668000 -0.732200 0.132900
vn 0.378400 -0.732200 -0.566300
vn 0.566300 -0.732200 -0.378400
vn -0.132900 -0.732200 -0.668000
vn 0.132900 -0.732200 -0.668000
vn -0.566300 -0.732200 -0.378400
vn -0.378400 -0.732200 -0.566300
vn -0.668000 -0.732200 0.132900
vn -0.668000 -0.732200 -0.132900
vn -0.378400 -0.732200 0.566300
vn -0.566300 -0.732200 0.378400
vn 0.132900 -0.732200 0.668000
vn -0.132900 -0.732200 0.668000
vn 0.566300 -0.732200 0.378400
vn 0.378400 -0.732200 0.566300
vn 0.652900 -0.757400 -0.000000
vn 0.461700 -0.757400 -0.461700
vn 0.000000 -0.757400 -0.652900
vn -0.461700 -0.757400 -0.461700
vn -0.652900 -0.757400 -0.000000
vn -0.461700 -0.757400 0.461700
vn 0.000000 -0.757400 0.652900
vn 0.461700 -0.757400 0.461700
# 121 vertex normals

vt 0.000000 0.000000 0.000000
# 1 texture coords

o diamondwhite_dmesh
g diamondwhite_dmesh
s 1
f 1/1/1 2/1/1 3/1/1 
f 3/1/1 4/1/1 1/1/1 
f 5/1/2 2/1/2 1/1/2 
f 1/1/2 6/1/2 5/1/2 
f 7/1/3 8/1/3 9/1/3 
f 9/1/3 10/1/3 7/1/3 
f 11/1/4 8/1/4 7/1/4 
f 7/1/4 12/1/4 11/1/4 
f 13/1/5 14/1/5 15/1/5 
f 15/1/5 16/1/5 13/1/5 
f 17/1/6 14/1/6 13/1/6 
f 13/1/6 18/1/6 17/1/6 
f 19/1/7 20/1/7 21/1/7 
f 21/1/7 22/1/7 19/1/7 
f 23/1/8 20/1/8 19/1/8 
f 19/1/8 24/1/8 23/1/8 
f 25/1/9 26/1/9 27/1/9 
f 27/1/9 28/1/9 25/1/9 
f 29/1/10 26/1/10 25/1/10 
f 25/1/10 30/1/10 29/1/10 
f 31/1/11 32/1/11 33/1/11 
f 33/1/11 34/1/11 31/1/11 
f 35/1/12 32/1/12 31/1/12 
f 31/1/12 36/1/12 35/1/12 
f 37/1/13 38/1/13 39/1/13 
f 39/1/13 40/1/13 37/1/13 
f 41/1/14 38/1/14 37/1/14 
f 37/1/14 42/1/14 41/1/14 
f 43/1/15 44/1/15 45/1/15 
f 45/1/15 46/1/15 43/1/15 
f 47/1/16 44/1/16 43/1/16 
f 43/1/16 48/1/16 47/1/16 
f 49/1/17 50/1/17 51/1/17 
f 51/1/17 52/1/17 49/1/17 
f 53/1/18 50/1/18 49/1/18 
f 49/1/18 54/1/18 53/1/18 
f 55/1/19 56/1/19 57/1/19 
f 57/1/19 58/1/19 55/1/19 
f 59/1/20 56/1/20 55/1/20 
f 55/1/20 60/1/20 59/1/20 
f 61/1/21 62/1/21 63/1/21 
f 63/1/21 64/1/21 61/1/21 
f 65/1/22 62/1/22 61/1/22 
f 61/1/22 66/1/22 65/1/22 
f 67/1/23 68/1/23 69/1/23 
f 69/1/23 70/1/23 67/1/23 
f 71/1/24 68/1/24 67/1/24 
f 67/1/24 72/1/24 71/1/24 
f 73/1/25 74/1/25 75/1/25 
f 75/1/25 76/1/25 73/1/25 
f 77/1/26 74/1/26 73/1/26 
f 73/1/26 78/1/26 77/1/26 
f 79/1/27 80/1/27 81/1/27 
f 81/1/27 82/1/27 79/1/27 
f 83/1/28 80/1/28 79/1/28 
f 79/1/28 84/1/28 83/1/28 
f 85/1/29 86/1/29 87/1/29 
f 87/1/29 88/1/29 85/1/29 
f 89/1/30 86/1/30 85/1/30 
f 85/1/30 90/1/30 89/1/30 
f 91/1/31 92/1/31 93/1/31 
f 93/1/31 94/1/31 91/1/31 
f 95/1/32 92/1/32 91/1/32 
f 91/1/32 96/1/32 95/1/32 
f 97/1/33 98/1/33 4/1/33 
f 4/1/33 3/1/33 97/1/33 
f 12/1/34 98/1/34 97/1/34 
f 97/1/34 11/1/34 12/1/34 
f 99/1/35 100/1/35 10/1/35 
f 10/1/35 9/1/35 99/1/35 
f 18/1/36 100/1/36 99/1/36 
f 99/1/36 17/1/36 18/1/36 
f 101/1/37 102/1/37 16/1/37 
f 16/1/37 15/1/37 101/1/37 
f 24/1/38 102/1/38 101/1/38 
f 101/1/38 23/1/38 24/1/38 
f 103/1/39 104/1/39 22/1/39 
f 22/1/39 21/1/39 103/1/39 
f 30/1/40 104/1/40 103/1/40 
f 103/1/40 29/1/40 30/1/40 
f 105/1/41 106/1/41 28/1/41 
f 28/1/41 27/1/41 105/1/41 
f 36/1/42 106/1/42 105/1/42 
f 105/1/42 35/1/42 36/1/42 
f 107/1/43 108/1/43 34/1/43 
f 34/1/43 33/1/43 107/1/43 
f 42/1/44 108/1/44 107/1/44 
f 107/1/44 41/1/44 42/1/44 
f 109/1/45 110/1/45 40/1/45 
f 40/1/45 39/1/45 109/1/45 
f 48/1/46 110/1/46 109/1/46 
f 109/1/46 47/1/46 48/1/46 
f 111/1/47 112/1/47 46/1/47 
f 46/1/47 45/1/47 111/1/47 
f 54/1/48 112/1/48 111/1/48 
f 111/1/48 53/1/48 54/1/48 
f 113/1/49 114/1/49 52/1/49 
f 52/1/49 51/1/49 113/1/49 
f 60/1/50 114/1/50 113/1/50 
f 113/1/50 59/1/50 60/1/50 
f 115/1/51 116/1/51 58/1/51 
f 58/1/51 57/1/51 115/1/51 
f 66/1/52 116/1/52 115/1/52 
f 115/1/52 65/1/52 66/1/52 
f 117/1/53 118/1/53 64/1/53 
f 64/1/53 63/1/53 117/1/53 
f 72/1/54 118/1/54 117/1/54 
f 117/1/54 71/1/54 72/1/54 
f 119/1/55 120/1/55 70/1/55 
f 70/1/55 69/1/55 119/1/55 
f 78/1/56 120/1/56 119/1/56 
f 119/1/56 77/1/56 78/1/56 
f 121/1/57 122/1/57 76/1/57 
f 76/1/57 75/1/57 121/1/57 
f 84/1/58 122/1/58 121/1/58 
f 121/1/58 83/1/58 84/1/58 
f 123/1/59 124/1/59 82/1/59 
f 82/1/59 81/1/59 123/1/59 
f 90/1/60 124/1/60 123/1/60 
f 123/1/60 89/1/60 90/1/60 
f 125/1/61 126/1/61 88/1/61 
f 88/1/61 87/1/61 125/1/61 
f 96/1/62 126/1/62 125/1/62 
f 125/1/62 95/1/62 96/1/62 
f 127/1/63 128/1/63 94/1/63 
f 94/1/63 93/1/63 127/1/63 
f 6/1/64 128/1/64 127/1/64 
f 127/1/64 5/1/64 6/1/64 
f 94/1/65 128/1/65 6/1/65 
f 6/1/65 1/1/65 129/1/65 
f 94/1/65 6/1/65 129/1/65 
f 94/1/65 129/1/65 91/1/65 
f 88/1/66 126/1/66 96/1/66 
f 88/1/66 96/1/66 91/1/66 
f 88/1/66 91/1/66 129/1/66 
f 88/1/66 129/1/66 85/1/66 
f 10/1/67 100/1/67 18/1/67 
f 10/1/67 18/1/67 13/1/67 
f 10/1/67 13/1/67 130/1/67 
f 10/1/67 130/1/67 7/1/67 
f 4/1/68 98/1/68 12/1/68 
f 12/1/68 7/1/68 130/1/68 
f 4/1/68 12/1/68 130/1/68 
f 4/1/68 130/1/68 1/1/68 
f 22/1/69 104/1/69 30/1/69 
f 22/1/69 30/1/69 25/1/69 
f 22/1/69 25/1/69 131/1/69 
f 22/1/69 131/1/69 19/1/69 
f 16/1/70 102/1/70 24/1/70 
f 24/1/70 19/1/70 131/1/70 
f 16/1/70 24/1/70 131/1/70 
f 16/1/70 131/1/70 13/1/70 
f 34/1/71 108/1/71 42/1/71 
f 34/1/71 42/1/71 37/1/71 
f 34/1/71 37/1/71 132/1/71 
f 34/1/71 132/1/71 31/1/71 
f 28/1/72 106/1/72 36/1/72 
f 36/1/72 31/1/72 132/1/72 
f 28/1/72 36/1/72 132/1/72 
f 28/1/72 132/1/72 25/1/72 
f 46/1/73 112/1/73 54/1/73 
f 46/1/73 54/1/73 49/1/73 
f 46/1/73 49/1/73 133/1/73 
f 46/1/73 133/1/73 43/1/73 
f 40/1/74 110/1/74 48/1/74 
f 48/1/74 43/1/74 133/1/74 
f 40/1/74 48/1/74 133/1/74 
f 40/1/74 133/1/74 37/1/74 
f 58/1/75 116/1/75 66/1/75 
f 58/1/75 66/1/75 61/1/75 
f 58/1/75 61/1/75 134/1/75 
f 58/1/75 134/1/75 55/1/75 
f 52/1/76 114/1/76 60/1/76 
f 60/1/76 55/1/76 134/1/76 
f 52/1/76 60/1/76 134/1/76 
f 52/1/76 134/1/76 49/1/76 
f 70/1/77 120/1/77 78/1/77 
f 70/1/77 78/1/77 73/1/77 
f 70/1/77 73/1/77 135/1/77 
f 70/1/77 135/1/77 67/1/77 
f 64/1/78 118/1/78 72/1/78 
f 72/1/78 67/1/78 135/1/78 
f 64/1/78 72/1/78 135/1/78 
f 64/1/78 135/1/78 61/1/78 
f 82/1/79 124/1/79 90/1/79 
f 82/1/79 90/1/79 85/1/79 
f 82/1/79 85/1/79 136/1/79 
f 82/1/79 136/1/79 79/1/79 
f 76/1/80 122/1/80 84/1/80 
f 84/1/80 79/1/80 136/1/80 
f 76/1/80 84/1/80 136/1/80 
f 76/1/80 136/1/80 73/1/80 
f 137/1/81 130/1/81 138/1/81 
f 131/1/82 138/1/82 130/1/82 
f 130/1/82 13/1/82 131/1/82 
f 138/1/83 131/1/83 139/1/83 
f 132/1/84 139/1/84 131/1/84 
f 131/1/84 25/1/84 132/1/84 
f 139/1/85 132/1/85 140/1/85 
f 133/1/86 140/1/86 132/1/86 
f 132/1/86 37/1/86 133/1/86 
f 140/1/87 133/1/87 141/1/87 
f 134/1/88 141/1/88 133/1/88 
f 133/1/88 49/1/88 134/1/88 
f 141/1/89 134/1/89 142/1/89 
f 135/1/90 142/1/90 134/1/90 
f 134/1/90 61/1/90 135/1/90 
f 142/1/91 135/1/91 143/1/91 
f 136/1/92 143/1/92 135/1/92 
f 135/1/92 73/1/92 136/1/92 
f 143/1/93 136/1/93 144/1/93 
f 129/1/94 144/1/94 136/1/94 
f 136/1/94 85/1/94 129/1/94 
f 144/1/95 129/1/95 137/1/95 
f 129/1/96 1/1/96 130/1/96 
f 130/1/96 137/1/96 129/1/96 
f 142/1/97 143/1/97 144/1/97 
f 144/1/97 137/1/97 138/1/97 
f 138/1/97 139/1/97 140/1/97 
f 144/1/97 138/1/97 140/1/97 
f 142/1/97 144/1/97 140/1/97 
f 142/1/97 140/1/97 141/1/97 
f 11/1/98 97/1/98 3/1/98 
f 3/1/98 2/1/98 145/1/98 
f 11/1/98 3/1/98 145/1/98 
f 11/1/98 145/1/98 8/1/98 
f 5/1/99 127/1/99 93/1/99 
f 5/1/99 93/1/99 92/1/99 
f 5/1/99 92/1/99 146/1/99 
f 5/1/99 146/1/99 2/1/99 
f 23/1/100 101/1/100 15/1/100 
f 15/1/100 14/1/100 147/1/100 
f 23/1/100 15/1/100 147/1/100 
f 23/1/100 147/1/100 20/1/100 
f 17/1/101 99/1/101 9/1/101 
f 17/1/101 9/1/101 8/1/101 
f 17/1/101 8/1/101 145/1/101 
f 17/1/101 145/1/101 14/1/101 
f 35/1/102 105/1/102 27/1/102 
f 27/1/102 26/1/102 148/1/102 
f 35/1/102 27/1/102 148/1/102 
f 35/1/102 148/1/102 32/1/102 
f 29/1/103 103/1/103 21/1/103 
f 29/1/103 21/1/103 20/1/103 
f 29/1/103 20/1/103 147/1/103 
f 29/1/103 147/1/103 26/1/103 
f 47/1/104 109/1/104 39/1/104 
f 39/1/104 38/1/104 149/1/104 
f 47/1/104 39/1/104 149/1/104 
f 47/1/104 149/1/104 44/1/104 
f 41/1/105 107/1/105 33/1/105 
f 41/1/105 33/1/105 32/1/105 
f 41/1/105 32/1/105 148/1/105 
f 41/1/105 148/1/105 38/1/105 
f 59/1/106 113/1/106 51/1/106 
f 51/1/106 50/1/106 150/1/106 
f 59/1/106 51/1/106 150/1/106 
f 59/1/106 150/1/106 56/1/106 
f 53/1/107 111/1/107 45/1/107 
f 53/1/107 45/1/107 44/1/107 
f 53/1/107 44/1/107 149/1/107 
f 53/1/107 149/1/107 50/1/107 
f 71/1/108 117/1/108 63/1/108 
f 63/1/108 62/1/108 151/1/108 
f 71/1/108 63/1/108 151/1/108 
f 71/1/108 151/1/108 68/1/108 
f 65/1/109 115/1/109 57/1/109 
f 65/1/109 57/1/109 56/1/109 
f 65/1/109 56/1/109 150/1/109 
f 65/1/109 150/1/109 62/1/109 
f 83/1/110 121/1/110 75/1/110 
f 75/1/110 74/1/110 152/1/110 
f 83/1/110 75/1/110 152/1/110 
f 83/1/110 152/1/110 80/1/110 
f 77/1/111 119/1/111 69/1/111 
f 77/1/111 69/1/111 68/1/111 
f 77/1/111 68/1/111 151/1/111 
f 77/1/111 151/1/111 74/1/111 
f 95/1/112 125/1/112 87/1/112 
f 87/1/112 86/1/112 146/1/112 
f 95/1/112 87/1/112 146/1/112 
f 95/1/112 146/1/112 92/1/112 
f 89/1/113 123/1/113 81/1/113 
f 89/1/113 81/1/113 80/1/113 
f 89/1/113 80/1/113 152/1/113 
f 89/1/113 152/1/113 86/1/113 
f 145/1/114 2/1/114 146/1/114 
f 146/1/114 153/1/114 145/1/114 
f 147/1/115 14/1/115 145/1/115 
f 145/1/115 153/1/115 147/1/115 
f 148/1/116 26/1/116 147/1/116 
f 147/1/116 153/1/116 148/1/116 
f 149/1/117 38/1/117 148/1/117 
f 148/1/117 153/1/117 149/1/117 
f 150/1/118 50/1/118 149/1/118 
f 149/1/118 153/1/118 150/1/118 
f 151/1/119 62/1/119 150/1/119 
f 150/1/119 153/1/119 151/1/119 
f 152/1/120 74/1/120 151/1/120 
f 151/1/120 153/1/120 152/1/120 
f 146/1/121 86/1/121 152/1/121 
f 152/1/121 153/1/121 146/1/121 
# 302 faces

