# 3ds Max Wavefront OBJ Exporter v0.97b - (c)2007 guruware
# 创建的文件:01.03.2019 13:52:09

#
# object Icosahedron
#

v  0.000000 0.447213 0.894427
v  0.850651 0.447213 0.276393
v  0.000000 1.000000 0.000001
v  0.525731 0.447214 -0.723607
v  -0.525731 0.447214 -0.723607
v  -0.850651 0.447213 0.276393
v  -0.525731 -0.447214 0.723607
v  0.525731 -0.447214 0.723607
v  0.850651 -0.447213 -0.276393
v  0.000000 -1.000000 -0.000001
v  0.000000 -0.447213 -0.894427
v  -0.850651 -0.447213 -0.276393
# 12 vertices

vn 0.356822 0.794654 0.491124
vn 0.577350 0.794655 -0.187592
vn 0.000000 0.794655 -0.607062
vn -0.577350 0.794655 -0.187592
vn -0.356822 0.794654 0.491124
vn -0.577350 0.187592 0.794654
vn 0.000000 -0.187593 0.982247
vn 0.577350 0.187592 0.794654
vn 0.934172 0.187593 -0.303531
vn 0.934172 -0.187593 0.303531
vn 0.000000 -0.794655 0.607061
vn 0.577350 -0.794655 0.187592
vn 0.577350 -0.187592 -0.794654
vn 0.356822 -0.794654 -0.491124
vn -0.577350 -0.794655 0.187592
vn -0.356822 -0.794654 -0.491124
vn 0.000000 0.187593 -0.982247
vn -0.577350 -0.187592 -0.794654
vn -0.934172 -0.187593 0.303531
vn -0.934172 0.187593 -0.303531
# 20 vertex normals

o Icosahedron
g Icosahedron
s off
f 1//1 2//1 3//1 
f 2//2 4//2 3//2 
f 4//3 5//3 3//3 
f 5//4 6//4 3//4 
f 6//5 1//5 3//5 
f 6//6 7//6 1//6 
f 7//7 8//7 1//7 
f 8//8 2//8 1//8 
f 2//9 9//9 4//9 
f 2//10 8//10 9//10 
f 7//11 10//11 8//11 
f 10//12 9//12 8//12 
f 9//13 11//13 4//13 
f 9//14 10//14 11//14 
f 7//15 12//15 10//15 
f 12//16 11//16 10//16 
f 11//17 5//17 4//17 
f 11//18 12//18 5//18 
f 7//19 6//19 12//19 
f 6//20 5//20 12//20 
# 20 faces

