# 3ds Max Wavefront OBJ Exporter v0.97b - (c)2007 guruware
# File Created: 03.05.2019 15:12:55

#
# object Icosahedron
#

v  0.018683 0.235748 0.413995
v  0.387958 0.235748 0.145700
v  0.018683 0.475717 0.025716
v  0.399505 0.235748 0.110162
v  0.258455 0.235748 -0.323946
v  0.030230 0.475718 -0.009822
v  0.228225 0.235748 -0.345910
v  -0.228225 0.235748 -0.345910
v  -0.000000 0.475718 -0.031786
v  -0.258455 0.235748 -0.323946
v  -0.399505 0.235748 0.110162
v  -0.030230 0.475718 -0.009822
v  -0.387958 0.235748 0.145700
v  -0.018683 0.235748 0.413995
v  -0.018683 0.475717 0.025716
v  -0.399505 0.203962 0.161594
v  -0.258455 -0.184317 0.355733
v  -0.030230 0.203961 0.429888
v  -0.228225 -0.203962 0.365555
v  0.228225 -0.203962 0.365555
v  -0.000000 0.184317 0.439710
v  0.258455 -0.184317 0.355733
v  0.399505 0.203962 0.161594
v  0.030230 0.203961 0.429888
v  0.418189 0.203962 0.104092
v  0.418189 -0.184317 -0.135878
v  0.277138 0.203962 -0.330017
v  0.418189 0.184317 0.135878
v  0.277138 -0.203962 0.330017
v  0.418189 -0.203962 -0.104092
v  -0.228225 -0.235748 0.345910
v  -0.000000 -0.475718 0.031786
v  0.228225 -0.235748 0.345910
v  0.030230 -0.475718 0.009822
v  0.399505 -0.235748 -0.110162
v  0.258455 -0.235748 0.323946
v  0.399505 -0.203962 -0.161594
v  0.030230 -0.203961 -0.429888
v  0.258455 0.184317 -0.355733
v  0.387958 -0.235748 -0.145700
v  0.018683 -0.475717 -0.025716
v  0.018683 -0.235748 -0.413995
v  -0.258455 -0.235748 0.323946
v  -0.399505 -0.235748 -0.110162
v  -0.030230 -0.475718 0.009822
v  -0.387958 -0.235748 -0.145700
v  -0.018683 -0.235748 -0.413995
v  -0.018683 -0.475717 -0.025716
v  -0.000000 -0.184317 -0.439710
v  -0.228225 0.203962 -0.365555
v  0.228225 0.203962 -0.365555
v  -0.030230 -0.203961 -0.429888
v  -0.399506 -0.203962 -0.161594
v  -0.258455 0.184317 -0.355733
v  -0.277138 -0.203962 0.330017
v  -0.418189 0.184317 0.135878
v  -0.418189 -0.203962 -0.104092
v  -0.418189 0.203962 0.104092
v  -0.277138 0.203962 -0.330017
v  -0.418189 -0.184317 -0.135878
v  0.012228 0.487859 0.003974
v  0.007558 0.487859 -0.010402
v  -0.007558 0.487859 -0.010402
v  -0.012228 0.487859 0.003974
v  0.000000 0.487859 0.012858
v  -0.012228 0.221730 0.434578
v  -0.007558 0.208873 0.441006
v  0.007558 0.208873 0.441006
v  0.012228 0.221730 0.434578
v  0.000000 0.229677 0.430604
v  0.409529 0.221731 0.145922
v  0.417086 0.208873 0.143466
v  0.421757 0.208873 0.129091
v  0.417086 0.221731 0.122662
v  0.409529 0.229677 0.133064
v  0.265331 0.221731 -0.344392
v  0.265331 0.208873 -0.352339
v  0.253103 0.208873 -0.361223
v  0.245545 0.221731 -0.358768
v  0.253103 0.229678 -0.348366
v  -0.245545 0.221731 -0.358768
v  -0.253103 0.208873 -0.361223
v  -0.265331 0.208873 -0.352339
v  -0.265331 0.221731 -0.344392
v  -0.253103 0.229678 -0.348366
v  -0.417086 0.221731 0.122662
v  -0.421757 0.208873 0.129091
v  -0.417086 0.208873 0.143466
v  -0.409529 0.221731 0.145922
v  -0.409529 0.229677 0.133064
v  -0.265331 -0.208873 0.352339
v  -0.265331 -0.221731 0.344392
v  -0.253103 -0.229678 0.348366
v  -0.245545 -0.221731 0.358768
v  -0.253103 -0.208873 0.361223
v  0.245545 -0.221731 0.358768
v  0.253103 -0.229678 0.348366
v  0.265331 -0.221731 0.344392
v  0.265331 -0.208873 0.352339
v  0.253103 -0.208873 0.361223
v  0.417086 -0.221731 -0.122662
v  0.409529 -0.229677 -0.133064
v  0.409529 -0.221731 -0.145922
v  0.417086 -0.208873 -0.143466
v  0.421757 -0.208873 -0.129091
v  -0.012228 -0.487859 -0.003974
v  -0.000000 -0.487859 -0.012858
v  0.012228 -0.487859 -0.003974
v  0.007558 -0.487859 0.010402
v  -0.007558 -0.487859 0.010402
v  0.012228 -0.221730 -0.434578
v  0.000000 -0.229677 -0.430604
v  -0.012228 -0.221730 -0.434578
v  -0.007558 -0.208873 -0.441006
v  0.007558 -0.208873 -0.441006
v  -0.409529 -0.221731 -0.145922
v  -0.409529 -0.229677 -0.133064
v  -0.417086 -0.221731 -0.122662
v  -0.421757 -0.208873 -0.129091
v  -0.417086 -0.208873 -0.143466
# 120 vertices

vn 0.319174 0.768463 0.554610
vn 0.428835 0.768463 0.474937
vn 0.319174 0.839725 0.439307
vn 0.626095 0.768464 -0.132169
vn 0.584209 0.768464 -0.261082
vn 0.516435 0.839725 -0.167799
vn 0.067774 0.768464 -0.636294
vn -0.067774 0.768464 -0.636294
vn 0.000000 0.839726 -0.543011
vn -0.584209 0.768464 -0.261082
vn -0.626095 0.768464 -0.132169
vn -0.516435 0.839725 -0.167799
vn -0.428835 0.768463 0.474937
vn -0.319174 0.768463 0.554610
vn -0.319174 0.839725 0.439307
vn -0.626095 0.225451 0.746443
vn -0.584209 0.110147 0.804094
vn -0.516435 0.225451 0.826116
vn -0.067774 -0.225453 0.971894
vn 0.067774 -0.225453 0.971894
vn -0.000000 -0.110149 0.993915
vn 0.584209 0.110147 0.804094
vn 0.626095 0.225451 0.746443
vn 0.516435 0.225451 0.826116
vn 0.945270 0.225452 -0.235875
vn 0.945270 0.110148 -0.307137
vn 0.903383 0.225452 -0.364788
vn 0.945270 -0.110148 0.307137
vn 0.903383 -0.225452 0.364788
vn 0.945270 -0.225452 0.235874
vn -0.067774 -0.768464 0.636294
vn -0.000000 -0.839725 0.543011
vn 0.067774 -0.768464 0.636294
vn 0.516435 -0.839725 0.167799
vn 0.626095 -0.768464 0.132169
vn 0.584209 -0.768464 0.261082
vn 0.626095 -0.225451 -0.746443
vn 0.516435 -0.225451 -0.826116
vn 0.584209 -0.110147 -0.804094
vn 0.428835 -0.768463 -0.474937
vn 0.319174 -0.839725 -0.439307
vn 0.319174 -0.768463 -0.554610
vn -0.584209 -0.768464 0.261082
vn -0.626095 -0.768464 0.132169
vn -0.516435 -0.839725 0.167799
vn -0.428835 -0.768463 -0.474937
vn -0.319174 -0.768463 -0.554610
vn -0.319174 -0.839725 -0.439307
vn -0.000000 0.110149 -0.993915
vn -0.067774 0.225453 -0.971894
vn 0.067774 0.225453 -0.971894
vn -0.516435 -0.225451 -0.826116
vn -0.626096 -0.225451 -0.746442
vn -0.584209 -0.110147 -0.804094
vn -0.903383 -0.225452 0.364788
vn -0.945270 -0.110148 0.307137
vn -0.945270 -0.225452 0.235874
vn -0.945270 0.225452 -0.235874
vn -0.903383 0.225452 -0.364788
vn -0.945270 0.110148 -0.307137
vn 0.307600 0.946252 0.099947
vn 0.190108 0.946252 -0.261661
vn -0.190108 0.946252 -0.261661
vn -0.307601 0.946252 0.099947
vn 0.000000 0.946251 0.323433
vn -0.307601 0.512570 0.801657
vn -0.190108 0.189139 0.963372
vn 0.190108 0.189139 0.963372
vn 0.307601 0.512570 0.801657
vn 0.000000 0.712462 0.701711
vn 0.667367 0.512570 0.540272
vn 0.857474 0.189139 0.478502
vn 0.974968 0.189140 0.116895
vn 0.857474 0.512571 -0.044820
vn 0.667367 0.712461 0.216841
vn 0.720056 0.512571 -0.467750
vn 0.720056 0.189140 -0.667641
vn 0.412455 0.189141 -0.891126
vn 0.222347 0.512572 -0.829356
vn 0.412455 0.712462 -0.567695
vn -0.222347 0.512572 -0.829356
vn -0.412455 0.189141 -0.891126
vn -0.720056 0.189140 -0.667641
vn -0.720056 0.512571 -0.467750
vn -0.412455 0.712463 -0.567695
vn -0.857474 0.512571 -0.044820
vn -0.974967 0.189140 0.116895
vn -0.857474 0.189139 0.478502
vn -0.667367 0.512570 0.540272
vn -0.667367 0.712462 0.216841
vn -0.720056 -0.189140 0.667641
vn -0.720056 -0.512571 0.467750
vn -0.412455 -0.712462 0.567695
vn -0.222347 -0.512572 0.829356
vn -0.412455 -0.189141 0.891126
vn 0.222347 -0.512572 0.829356
vn 0.412455 -0.712463 0.567695
vn 0.720056 -0.512571 0.467750
vn 0.720056 -0.189140 0.667641
vn 0.412455 -0.189141 0.891126
vn 0.857474 -0.512571 0.044820
vn 0.667367 -0.712462 -0.216841
vn 0.667367 -0.512570 -0.540272
vn 0.857474 -0.189139 -0.478502
vn 0.974967 -0.189140 -0.116895
vn -0.307601 -0.946252 -0.099947
vn -0.000000 -0.946251 -0.323433
vn 0.307600 -0.946252 -0.099947
vn 0.190108 -0.946252 0.261661
vn -0.190108 -0.946252 0.261661
vn 0.307601 -0.512570 -0.801657
vn 0.000000 -0.712462 -0.701711
vn -0.307601 -0.512570 -0.801657
vn -0.190108 -0.189139 -0.963372
vn 0.190108 -0.189139 -0.963372
vn -0.667367 -0.512570 -0.540272
vn -0.667367 -0.712462 -0.216841
vn -0.857474 -0.512571 0.044820
vn -0.974967 -0.189140 -0.116895
vn -0.857475 -0.189139 -0.478502
# 120 vertex normals

o Icosahedron
g Icosahedron
s 1
f 1//1 2//2 3//3 
f 4//4 5//5 6//6 
f 7//7 8//8 9//9 
f 10//10 11//11 12//12 
f 13//13 14//14 15//15 
f 16//16 17//17 18//18 
f 19//19 20//20 21//21 
f 22//22 23//23 24//24 
f 25//25 26//26 27//27 
f 28//28 29//29 30//30 
f 31//31 32//32 33//33 
f 34//34 35//35 36//36 
f 37//37 38//38 39//39 
f 40//40 41//41 42//42 
f 43//43 44//44 45//45 
f 46//46 47//47 48//48 
f 49//49 50//50 51//51 
f 52//52 53//53 54//54 
f 55//55 56//56 57//57 
f 58//58 59//59 60//60 
f 61//61 62//62 63//63 
f 61//61 63//63 64//64 
f 61//61 64//64 65//65 
f 66//66 67//67 68//68 
f 66//66 68//68 69//69 
f 66//66 69//69 70//70 
f 71//71 72//72 73//73 
f 71//71 73//73 74//74 
f 71//71 74//74 75//75 
f 76//76 77//77 78//78 
f 76//76 78//78 79//79 
f 76//76 79//79 80//80 
f 81//81 82//82 83//83 
f 81//81 83//83 84//84 
f 81//81 84//84 85//85 
f 86//86 87//87 88//88 
f 86//86 88//88 89//89 
f 86//86 89//89 90//90 
f 91//91 92//92 93//93 
f 91//91 93//93 94//94 
f 91//91 94//94 95//95 
f 96//96 97//97 98//98 
f 96//96 98//98 99//99 
f 96//96 99//99 100//100 
f 101//101 102//102 103//103 
f 101//101 103//103 104//104 
f 101//101 104//104 105//105 
f 106//106 107//107 108//108 
f 106//106 108//108 109//109 
f 106//106 109//109 110//110 
f 111//111 112//112 113//113 
f 111//111 113//113 114//114 
f 111//111 114//114 115//115 
f 116//116 117//117 118//118 
f 116//116 118//118 119//119 
f 116//116 119//119 120//120 
f 71//71 2//2 1//1 
f 1//1 69//69 71//71 
f 61//61 3//3 2//2 
f 2//2 75//75 61//61 
f 70//70 1//1 3//3 
f 3//3 65//65 70//70 
f 76//76 5//5 4//4 
f 4//4 74//74 76//76 
f 62//62 6//6 5//5 
f 5//5 80//80 62//62 
f 81//81 8//8 7//7 
f 7//7 79//79 81//81 
f 63//63 9//9 8//8 
f 8//8 85//85 63//63 
f 86//86 11//11 10//10 
f 10//10 84//84 86//86 
f 64//64 12//12 11//11 
f 11//11 90//90 64//64 
f 66//66 14//14 13//13 
f 13//13 89//89 66//66 
f 91//91 17//17 16//16 
f 16//16 88//88 91//91 
f 67//67 18//18 17//17 
f 17//17 95//95 67//67 
f 96//96 20//20 19//19 
f 19//19 94//94 96//96 
f 68//68 21//21 20//20 
f 20//20 100//100 68//68 
f 72//72 23//23 22//22 
f 22//22 99//99 72//72 
f 105//105 26//26 25//25 
f 25//25 73//73 105//105 
f 77//77 27//27 26//26 
f 26//26 104//104 77//77 
f 101//101 30//30 29//29 
f 29//29 98//98 101//101 
f 110//110 32//32 31//31 
f 31//31 93//93 110//110 
f 97//97 33//33 32//32 
f 32//32 109//109 97//97 
f 102//102 35//35 34//34 
f 34//34 108//108 102//102 
f 111//111 38//38 37//37 
f 37//37 103//103 111//111 
f 78//78 39//39 38//38 
f 38//38 115//115 78//78 
f 112//112 42//42 41//41 
f 41//41 107//107 112//112 
f 118//118 44//44 43//43 
f 43//43 92//92 118//118 
f 106//106 45//45 44//44 
f 44//44 117//117 106//106 
f 113//113 47//47 46//46 
f 46//46 116//116 113//113 
f 82//82 50//50 49//49 
f 49//49 114//114 82//82 
f 83//83 54//54 53//53 
f 53//53 120//120 83//83 
f 119//119 57//57 56//56 
f 56//56 87//87 119//119 
f 65//65 3//3 61//61 
f 61//61 6//6 62//62 
f 62//62 9//9 63//63 
f 63//63 12//12 64//64 
f 64//64 15//15 65//65 
f 70//70 14//14 66//66 
f 66//66 18//18 67//67 
f 67//67 21//21 68//68 
f 68//68 24//24 69//69 
f 69//69 1//1 70//70 
f 75//75 2//2 71//71 
f 71//71 23//23 72//72 
f 72//72 28//28 73//73 
f 73//73 25//25 74//74 
f 74//74 4//4 75//75 
f 80//80 5//5 76//76 
f 76//76 27//27 77//77 
f 77//77 39//39 78//78 
f 78//78 51//51 79//79 
f 79//79 7//7 80//80 
f 85//85 8//8 81//81 
f 81//81 50//50 82//82 
f 82//82 54//54 83//83 
f 83//83 59//59 84//84 
f 84//84 10//10 85//85 
f 90//90 11//11 86//86 
f 86//86 58//58 87//87 
f 87//87 56//56 88//88 
f 88//88 16//16 89//89 
f 89//89 13//13 90//90 
f 95//95 17//17 91//91 
f 91//91 55//55 92//92 
f 92//92 43//43 93//93 
f 93//93 31//31 94//94 
f 94//94 19//19 95//95 
f 100//100 20//20 96//96 
f 96//96 33//33 97//97 
f 97//97 36//36 98//98 
f 98//98 29//29 99//99 
f 99//99 22//22 100//100 
f 105//105 30//30 101//101 
f 101//101 35//35 102//102 
f 102//102 40//40 103//103 
f 103//103 37//37 104//104 
f 104//104 26//26 105//105 
f 110//110 45//45 106//106 
f 106//106 48//48 107//107 
f 107//107 41//41 108//108 
f 108//108 34//34 109//109 
f 109//109 32//32 110//110 
f 115//115 38//38 111//111 
f 111//111 42//42 112//112 
f 112//112 47//47 113//113 
f 113//113 52//52 114//114 
f 114//114 49//49 115//115 
f 120//120 53//53 116//116 
f 116//116 46//46 117//117 
f 117//117 44//44 118//118 
f 118//118 57//57 119//119 
f 119//119 60//60 120//120 
f 23//23 71//71 69//69 
f 69//69 24//24 23//23 
f 6//6 61//61 75//75 
f 75//75 4//4 6//6 
f 14//14 70//70 65//65 
f 65//65 15//15 14//14 
f 27//27 76//76 74//74 
f 74//74 25//25 27//27 
f 9//9 62//62 80//80 
f 80//80 7//7 9//9 
f 50//50 81//81 79//79 
f 79//79 51//51 50//50 
f 12//12 63//63 85//85 
f 85//85 10//10 12//12 
f 58//58 86//86 84//84 
f 84//84 59//59 58//58 
f 15//15 64//64 90//90 
f 90//90 13//13 15//15 
f 18//18 66//66 89//89 
f 89//89 16//16 18//18 
f 55//55 91//91 88//88 
f 88//88 56//56 55//55 
f 21//21 67//67 95//95 
f 95//95 19//19 21//21 
f 33//33 96//96 94//94 
f 94//94 31//31 33//33 
f 24//24 68//68 100//100 
f 100//100 22//22 24//24 
f 28//28 72//72 99//99 
f 99//99 29//29 28//28 
f 30//30 105//105 73//73 
f 73//73 28//28 30//30 
f 39//39 77//77 104//104 
f 104//104 37//37 39//39 
f 35//35 101//101 98//98 
f 98//98 36//36 35//35 
f 45//45 110//110 93//93 
f 93//93 43//43 45//45 
f 36//36 97//97 109//109 
f 109//109 34//34 36//36 
f 40//40 102//102 108//108 
f 108//108 41//41 40//40 
f 42//42 111//111 103//103 
f 103//103 40//40 42//42 
f 51//51 78//78 115//115 
f 115//115 49//49 51//51 
f 47//47 112//112 107//107 
f 107//107 48//48 47//47 
f 57//57 118//118 92//92 
f 92//92 55//55 57//57 
f 48//48 106//106 117//117 
f 117//117 46//46 48//48 
f 52//52 113//113 116//116 
f 116//116 53//53 52//52 
f 54//54 82//82 114//114 
f 114//114 52//52 54//54 
f 59//59 83//83 120//120 
f 120//120 60//60 59//59 
f 60//60 119//119 87//87 
f 87//87 58//58 60//60 
# 236 faces

